RBDS016runT35_grf
version=1
nRows=30
nColumns=19
inDegrees=no
endheader
time	ground_force_r_vx	ground_force_r_vy	ground_force_r_vz	ground_force_r_px	ground_force_r_py	ground_force_r_pz	ground_force_r_mx	ground_force_r_my	ground_force_r_mz	ground_force_l_vx	ground_force_l_vy	ground_force_l_vz	ground_force_l_px	ground_force_l_py	ground_force_l_pz	ground_force_l_mx	ground_force_l_my	ground_force_l_mz
      7.49900000	      0.00000000	      0.00000000	      0.00000000	      0.00000000	      0.00000000	      0.00000000	      0.00000000	      0.00000000	      0.00000000	    185.35247674	    521.04070148	     -3.55860163	      2.13462509	      0.00000000	      0.94106157	     -0.00000000	      4.73062775	     -0.00000000
      7.50000000	      0.00000000	      0.00000000	      0.00000000	      0.00000000	      0.00000000	      0.00000000	      0.00000000	      0.00000000	      0.00000000	    183.48374900	    503.55931720	     -4.22058792	      2.13167445	      0.00000000	      0.94107754	     -0.00000000	      4.53427004	     -0.00000000
      7.50100000	      0.00000000	      0.00000000	      0.00000000	      0.00000000	      0.00000000	      0.00000000	      0.00000000	      0.00000000	      0.00000000	    181.18841708	    486.94674931	     -4.75050243	      2.12879140	      0.00000000	      0.94107408	     -0.00000000	      4.33865564	     -0.00000000
      7.50200000	      0.00000000	      0.00000000	      0.00000000	      0.00000000	      0.00000000	      0.00000000	      0.00000000	      0.00000000	      0.00000000	    178.89308516	    470.33418142	     -5.28041695	      2.12590834	      0.00000000	      0.94107061	     -0.00000000	      4.14304124	     -0.00000000
      7.50300000	      0.00000000	      0.00000000	      0.00000000	      0.00000000	      0.00000000	      0.00000000	      0.00000000	      0.00000000	      0.00000000	    176.59775323	    453.72161353	     -5.81033146	      2.12302528	      0.00000000	      0.94106715	     -0.00000000	      3.94742684	     -0.00000000
      7.50400000	      0.00000000	      0.00000000	      0.00000000	      0.00000000	      0.00000000	      0.00000000	      0.00000000	      0.00000000	      0.00000000	    174.04858592	    437.72786101	     -6.25607104	      2.12019727	      0.00000000	      0.94104991	     -0.00000000	      3.75272788	     -0.00000000
      7.50500000	      0.00000000	      0.00000000	      0.00000000	      0.00000000	      0.00000000	      0.00000000	      0.00000000	      0.00000000	      0.00000000	    171.37250090	    422.04351616	     -6.65972317	      2.11739678	      0.00000000	      0.94102579	     -0.00000000	      3.55848663	     -0.00000000
      7.50600000	      0.00000000	      0.00000000	      0.00000000	      0.00000000	      0.00000000	      0.00000000	      0.00000000	      0.00000000	      0.00000000	    168.69641588	    406.35917131	     -7.06337529	      2.11459630	      0.00000000	      0.94100166	     -0.00000000	      3.36424538	     -0.00000000
      7.50700000	      0.00000000	      0.00000000	      0.00000000	      0.00000000	      0.00000000	      0.00000000	      0.00000000	      0.00000000	      0.00000000	    165.91106708	    390.99953450	     -7.42775142	      2.11182826	      0.00000000	      0.94097052	     -0.00000000	      3.17067359	     -0.00000000
      7.50800000	      0.00000000	      0.00000000	      0.00000000	      0.00000000	      0.00000000	      0.00000000	      0.00000000	      0.00000000	      0.00000000	    162.90719072	    376.28931377	     -7.71357554	      2.10912513	      0.00000000	      0.94092533	     -0.00000000	      2.97844072	     -0.00000000
      7.50900000	      0.00000000	      0.00000000	      0.00000000	      0.00000000	      0.00000000	      0.00000000	      0.00000000	      0.00000000	      0.00000000	    159.90331436	    361.57909303	     -7.99939967	      2.10642201	      0.00000000	      0.94088015	     -0.00000000	      2.78620785	     -0.00000000
      7.51000000	      0.00000000	      0.00000000	      0.00000000	      0.00000000	      0.00000000	      0.00000000	      0.00000000	      0.00000000	      0.00000000	    156.89943800	    346.86887230	     -8.28522379	      2.10371888	      0.00000000	      0.94083496	     -0.00000000	      2.59397498	     -0.00000000
      7.51100000	      0.00000000	      0.00000000	      0.00000000	      0.00000000	      0.00000000	      0.00000000	      0.00000000	      0.00000000	      0.00000000	    153.62681246	    333.16547740	     -8.46380166	      2.10112739	      0.00000000	      0.94076917	     -0.00000000	      2.40441843	     -0.00000000
      7.51200000	      0.00000000	      0.00000000	      0.00000000	      0.00000000	      0.00000000	      0.00000000	      0.00000000	      0.00000000	      0.00000000	    150.35418692	    319.46208249	     -8.64237954	      2.09853591	      0.00000000	      0.94070337	     -0.00000000	      2.21486188	     -0.00000000
      7.51300000	      0.00000000	      0.00000000	      0.00000000	      0.00000000	      0.00000000	      0.00000000	      0.00000000	      0.00000000	      0.00000000	    147.08156137	    305.75868759	     -8.82095741	      2.09594442	      0.00000000	      0.94063757	     -0.00000000	      2.02530533	     -0.00000000
      7.51400000	      0.00000000	      0.00000000	      0.00000000	      0.00000000	      0.00000000	      0.00000000	      0.00000000	      0.00000000	      0.00000000	    143.67233233	    292.73985553	     -8.93618710	      2.09343634	      0.00000000	      0.94055888	     -0.00000000	      1.83801820	     -0.00000000
      7.51500000	      0.00000000	      0.00000000	      0.00000000	      0.00000000	      0.00000000	      0.00000000	      0.00000000	      0.00000000	      0.00000000	    140.19480154	    280.06330489	     -9.01974270	      2.09096995	      0.00000000	      0.94047374	     -0.00000000	      1.65186577	     -0.00000000
      7.51600000	      0.00000000	      0.00000000	      0.00000000	      0.00000000	      0.00000000	      0.00000000	      0.00000000	      0.00000000	      0.00000000	    136.71727075	    267.38675425	     -9.10329830	      2.08850357	      0.00000000	      0.94038861	     -0.00000000	      1.46571335	      0.00000000
      7.51700000	      0.00000000	      0.00000000	      0.00000000	      0.00000000	      0.00000000	      0.00000000	      0.00000000	      0.00000000	      0.00000000	    133.19382000	    255.05515903	     -9.15963060	      2.08608299	      0.00000000	      0.94029771	     -0.00000000	      1.28096631	      0.00000000
      7.51800000	      0.00000000	      0.00000000	      0.00000000	      0.00000000	      0.00000000	      0.00000000	      0.00000000	      0.00000000	      0.00000000	    129.57852937	    243.41347467	     -9.16151629	      2.08375404	      0.00000000	      0.94019527	     -0.00000000	      1.09903002	      0.00000000
      7.51900000	      0.00000000	      0.00000000	      0.00000000	      0.00000000	      0.00000000	      0.00000000	      0.00000000	      0.00000000	      0.00000000	    125.96323873	    231.77179030	     -9.16340197	      2.08142509	      0.00000000	      0.94009283	     -0.00000000	      0.91709373	      0.00000000
      7.52000000	      0.00000000	      0.00000000	      0.00000000	      0.00000000	      0.00000000	      0.00000000	      0.00000000	      0.00000000	      0.00000000	    122.34794809	    220.13010594	     -9.16528766	      2.07909614	      0.00000000	      0.93999040	     -0.00000000	      0.73515745	      0.00000000
      7.52100000	      0.00000000	      0.00000000	      0.00000000	      0.00000000	      0.00000000	      0.00000000	      0.00000000	      0.00000000	      0.00000000	    118.66366053	    209.52012816	     -9.09947865	      2.07691553	      0.00000000	      0.93987337	     -0.00000000	      0.55835203	      0.00000000
      7.52200000	      0.00000000	      0.00000000	      0.00000000	      0.00000000	      0.00000000	      0.00000000	      0.00000000	      0.00000000	      0.00000000	    114.97937296	    198.91015038	     -9.03366965	      2.07473492	      0.00000000	      0.93975634	     -0.00000000	      0.38154660	      0.00000000
      7.52300000	      0.00000000	      0.00000000	      0.00000000	      0.00000000	      0.00000000	      0.00000000	      0.00000000	      0.00000000	      0.00000000	    111.29508540	    188.30017260	     -8.96786064	      2.07255431	      0.00000000	      0.93963931	     -0.00000000	      0.20474118	      0.00000000
      7.52400000	      0.00000000	      0.00000000	      0.00000000	      0.00000000	      0.00000000	      0.00000000	      0.00000000	      0.00000000	      0.00000000	    107.61050729	    178.36903767	     -8.86633248	      2.07047871	      0.00000000	      0.93951472	     -0.00000000	      0.03204070	      0.00000000
      7.52500000	      0.00000000	      0.00000000	      0.00000000	      0.00000000	      0.00000000	      0.00000000	      0.00000000	      0.00000000	      0.00000000	    103.92578390	    168.77732415	     -8.74694474	      2.06845563	      0.00000000	      0.93938633	     -0.00000000	     -0.13860732	      0.00000000
      7.52600000	      0.00000000	      0.00000000	      0.00000000	      0.00000000	      0.00000000	      0.00000000	      0.00000000	      0.00000000	      0.00000000	    100.24106051	    159.18561063	     -8.62755700	      2.06643254	      0.00000000	      0.93925795	     -0.00000000	     -0.30925534	      0.00000000
      7.52700000	      0.00000000	      0.00000000	      0.00000000	      0.00000000	      0.00000000	      0.00000000	      0.00000000	      0.00000000	      0.00000000	     96.57834560	    149.92572441	     -8.49491302	      2.06446437	      0.00000000	      0.93912699	     -0.00000000	     -0.47747290	      0.00000000
      7.52800000	      0.00000000	      0.00000000	      0.00000000	      0.00000000	      0.00000000	      0.00000000	      0.00000000	      0.00000000	      0.00000000	     92.95964767	    141.32949280	     -8.33575655	      2.06260603	      0.00000000	      0.93899087	     -0.00000000	     -0.64082955	      0.00000000
